<svg xmlns="http://www.w3.org/2000/svg" width="187.283" height="151.265" viewBox="0 0 187.283 151.265">
  <g id="Group_36" data-name="Group 36" transform="translate(-1162.81 -603)">
    <g id="R24_white_horizontal_-_Pais" data-name="R24 white horizontal - Pais" transform="translate(1162.81 603)">
      <g id="Group_15" data-name="Group 15" transform="translate(3.039 0)">
        <path id="Path_45" data-name="Path 45" d="M140.25,72.129c5.471-1.995,10.034-.972,13.86,3.674C167.6,63.72,182.666,57.087,200.331,61.738,213.424,65.185,223.765,75.256,230.6,86.9c14.352,24.47,6.338,59.344-23.313,72.968,15.24-3.6,37.564-21.469,39.8-50.081,2.214-28.245-14.735-53.3-41.6-61.3-28.035-8.342-54,5.467-65.236,23.637Z" transform="translate(-97.846 -46.002)" fill="#fbdd0d"/>
        <g id="Group_14" data-name="Group 14" transform="translate(0 15.791)">
          <path id="Path_46" data-name="Path 46" d="M178.11,129.17,167.875,124.2s5.223-15.669,19.845-15.669c18.468,0,20.888,12.2,20.888,18.969,0,12.576-19.011,25.11-19.011,25.11h20.013v10.737H167.58v-3.093s27.74-22.812,27.74-32.757c0-2.008-.417-8.607-7.605-8.607-5.85,0-9.609,10.278-9.609,10.278Z" transform="translate(-113.674 -98.004)" fill="#880a9c"/>
          <path id="Path_47" data-name="Path 47" d="M293,142.523v10.821H286.73v11.322H275.24V153.954H248.75v-4.289l25.863-38.856H286.73v31.713H293Zm-17.883-15.291-9.609,15.291h9.735V127.233h-.126Z" transform="translate(-160.681 -99.324)" fill="#880a9c"/>
          <path id="Path_48" data-name="Path 48" d="M99.268,91.571c-2.016,1.46-3.939,2.887-5.9,4.259a1.219,1.219,0,0,0-.543,1.675c.838,2.344,1.57,4.731,2.437,7.395-1.557-1.132-2.879-2.1-4.2-3.06-.821-.6-1.667-1.17-2.437-1.831-.564-.48-.96-.383-1.494.042-1.831,1.456-3.691,2.866-5.547,4.293-.156.122-.332.219-.728.471.728-2.163,1.372-4.1,2.037-6.031.694-2.016.7-2.008-1.052-3.283-1.772-1.292-3.531-2.6-5.295-3.9.215-.4.518-.261.762-.261,2.273-.008,4.546-.029,6.814.008a1.13,1.13,0,0,0,1.309-.922A71.371,71.371,0,0,1,87.98,83.52c.577,1.667,1.166,3.329,1.721,5,.934,2.811.926,2.811,3.893,2.816,1.8,0,3.59.013,5.387.025.05,0,.1.072.282.21Z" transform="translate(-60.951 -83.52)" fill="#fd0"/>
          <path id="Path_49" data-name="Path 49" d="M101.433,110.456a11.177,11.177,0,0,0-2.483-4.482q-4.325-5.884-14.133-5.884H68.793l-1.376,6.381a6.37,6.37,0,0,1,4.4,4.748h10.32c1.12,0,1.684.055,1.684.16a6.722,6.722,0,0,1,4.764,1.923,6.985,6.985,0,0,1,1.561,6.166c-.185.56-.455,1.254-.8,2.083q-3.485,6.124-9.689,6.124h-37.8L39.5,138.8H62.24q7.046,0,10.728,3.081,6.484,5.562,4.482,15.013l-.2.88H88.9Q91.62,145,85.978,137.237a23.658,23.658,0,0,0,7.328-4.322q6.768-6.042,8.127-12.37l.362-1.641A17.813,17.813,0,0,0,101.433,110.456Z" transform="translate(-39.5 -93.116)" fill="#fcde0a"/>
        </g>
      </g>
      <g id="Group_16" data-name="Group 16" transform="translate(0 122.285)">
        <path id="Path_50" data-name="Path 50" d="M421.961,126.627h-3.326V135.9H415.07V107.57h8.111a9.95,9.95,0,0,1,5.925,2.874,9.056,9.056,0,0,1,2.777,6.635,9.23,9.23,0,0,1-2.854,6.733,7.77,7.77,0,0,1-3.346,2.264l6.358,9.823h-4.114l-5.964-9.273Zm-3.326-15.945v12.835h3.5a5.939,5.939,0,0,0,4.33-1.842,6.22,6.22,0,0,0,1.85-4.6,6.142,6.142,0,0,0-1.85-4.566,5.962,5.962,0,0,0-4.33-1.831Z" transform="translate(-415.07 -107.235)" fill="#606060"/>
        <path id="Path_51" data-name="Path 51" d="M521.455,107.57v3.09H509.6v9.529h11.851v3.09H509.6v9.529h11.851v3.09H506.04V107.57Z" transform="translate(-486.353 -107.235)" fill="#606060"/>
        <path id="Path_52" data-name="Path 52" d="M597.722,119.782a12.169,12.169,0,0,1-4.9-2.854,6.276,6.276,0,0,1,.069-8.968,6.45,6.45,0,0,1,4.774-1.939,6.568,6.568,0,0,1,4.824,1.989,6.882,6.882,0,0,1,1.634,2.874l-3.19,1.24a6.355,6.355,0,0,0-1.063-2.067,3.01,3.01,0,0,0-2.205-.985,2.975,2.975,0,0,0-2.175.954,3.294,3.294,0,0,0-.954,2.43,3.429,3.429,0,0,0,.985,2.48,10.3,10.3,0,0,0,2.8,1.811,14,14,0,0,1,5.67,3.387,8.536,8.536,0,0,1,.03,12.275,9.055,9.055,0,0,1-12.747-.069,8.982,8.982,0,0,1-2.519-5.257l3.426-1.24a7.189,7.189,0,0,0,1.753,4.508,5.11,5.11,0,0,0,3.74,1.576,5.237,5.237,0,0,0,3.809-1.623,5.8,5.8,0,0,0,.028-8.022,11.8,11.8,0,0,0-3.781-2.5Z" transform="translate(-551.163 -106.02)" fill="#606060"/>
        <path id="Path_53" data-name="Path 53" d="M702.008,128.453l2.48,2.205a15.329,15.329,0,0,1-10.533,4.35,14.2,14.2,0,0,1-10.444-4.261,14.368,14.368,0,0,1,0-20.425,14.151,14.151,0,0,1,10.444-4.291,15.293,15.293,0,0,1,10.533,4.369l-2.48,2.205a12.1,12.1,0,0,0-8.053-3.445,10.691,10.691,0,0,0-7.825,3.3,11.538,11.538,0,0,0,0,16.153,10.706,10.706,0,0,0,7.825,3.287A12.1,12.1,0,0,0,702.008,128.453Z" transform="translate(-622.078 -106.028)" fill="#606060"/>
        <path id="Path_54" data-name="Path 54" d="M811.275,107.57,821.531,135.9h-3.7l-4.272-11.773h-7.7L801.51,135.9h-3.72l10.394-28.328h3.09Zm1.162,13.485-2.716-7.52-2.735,7.52h5.453Z" transform="translate(-714.965 -107.235)" fill="#606060"/>
        <path id="Path_55" data-name="Path 55" d="M910.634,110.66V135.9h-3.543V110.66H900.32v-3.09h17.068v3.09h-6.752Z" transform="translate(-795.306 -107.235)" fill="#606060"/>
        <path id="Path_56" data-name="Path 56" d="M1003.965,107.57v3.09H992.114v9.529h11.851v3.09H992.114v9.529h11.851v3.09H988.55V107.57Z" transform="translate(-864.442 -107.235)" fill="#606060"/>
        <path id="Path_57" data-name="Path 57" d="M1074.72,136.4v-3.924l3.541-3.2c6.1-5.46,9.042-8.572,9.085-11.814,0-2.262-1.322-4.051-4.521-4.051a10.292,10.292,0,0,0-5.928,2.262l-1.833-4.607a15.215,15.215,0,0,1,9.042-2.857c6.313,0,9.724,3.668,9.724,8.7,0,4.649-3.326,8.36-7.38,11.942l-2.56,2.132v.084h10.492V136.4H1074.72Z" transform="translate(-931.963 -107.736)" fill="#606060"/>
        <path id="Path_58" data-name="Path 58" d="M1192.434,138.092v-6.611H1180.15v-4.222L1190.6,110.37h7.975v16.25h3.285v4.863h-3.285v6.611h-6.142Zm0-11.474v-6.142c0-1.664.084-3.37.171-5.161h-.128c-.9,1.792-1.664,3.413-2.6,5.161l-3.668,6.057-.043.084Z" transform="translate(-1014.577 -109.429)" fill="#606060"/>
      </g>
    </g>
  </g>
</svg>
