<svg xmlns="http://www.w3.org/2000/svg" width="56.282" height="42.887" viewBox="0 0 56.282 42.887">
  <g id="R24_white_horizontal_-_Pais_copy" data-name="R24 white horizontal - Pais copy" transform="translate(-39.5 -46.002)">
    <g id="Group_12" data-name="Group 12" transform="translate(39.5 46.002)">
      <path id="Path_31" data-name="Path 31" d="M140.25,55.842a4.256,4.256,0,0,1,5.22,1.384c5.081-4.551,10.756-7.049,17.409-5.3,4.932,1.3,8.826,5.092,11.4,9.478a19.476,19.476,0,0,1-8.78,27.483c5.74-1.355,14.148-8.086,14.991-18.862A22.01,22.01,0,0,0,140.25,55.842Z" transform="translate(-124.279 -46.002)" fill="#ffdc00"/>
      <g id="Group_11" data-name="Group 11" transform="translate(0 5.947)">
        <path id="Path_32" data-name="Path 32" d="M171.546,116.3l-3.855-1.872s1.967-5.9,7.474-5.9c6.956,0,7.867,4.6,7.867,7.144,0,4.737-7.16,9.457-7.16,9.457h7.538v4.044H167.58V128.01s10.448-8.592,10.448-12.338c0-.756-.157-3.242-2.864-3.242-2.2,0-3.619,3.871-3.619,3.871Z" transform="translate(-147.277 -104.565)" fill="#fff"/>
        <path id="Path_33" data-name="Path 33" d="M265.415,122.754v4.076h-2.36v4.264h-4.328V127.06H248.75v-1.615l9.741-14.635h4.564v11.944h2.36ZM258.68,117l-3.619,5.759h3.667V117Z" transform="translate(-215.58 -106.484)" fill="#fff"/>
        <path id="Path_34" data-name="Path 34" d="M85.1,86.552c-.759.55-1.484,1.087-2.224,1.6a.459.459,0,0,0-.2.631c.315.883.591,1.782.918,2.785L82.007,90.42c-.309-.227-.628-.441-.918-.69-.212-.181-.361-.144-.563.016-.69.548-1.39,1.08-2.089,1.617-.059.046-.125.082-.274.178.274-.815.517-1.544.767-2.272.262-.759.263-.756-.4-1.236s-1.33-.98-1.994-1.468c.081-.151.195-.1.287-.1.856,0,1.712-.011,2.566,0a.425.425,0,0,0,.493-.347,26.88,26.88,0,0,1,.962-2.6c.217.628.439,1.254.648,1.885.352,1.059.349,1.059,1.466,1.06.677,0,1.352,0,2.029.01.019,0,.038.027.106.079Z" transform="translate(-70.668 -83.52)" fill="#ffda00"/>
        <path id="Path_35" data-name="Path 35" d="M62.826,103.994a4.21,4.21,0,0,0-.935-1.688q-1.629-2.216-5.323-2.216H50.533l-.518,2.4a2.4,2.4,0,0,1,1.658,1.788H55.56c.422,0,.634.021.634.06a2.532,2.532,0,0,1,1.794.724,2.631,2.631,0,0,1,.588,2.322c-.07.211-.171.472-.3.785a4.038,4.038,0,0,1-3.649,2.306H40.389l-.889,4.191h8.565a6.15,6.15,0,0,1,4.041,1.16,5.429,5.429,0,0,1,1.688,5.654l-.076.331h4.388q1.025-4.81-1.1-7.736a9.717,9.717,0,0,0,5.821-6.287l.136-.618A6.709,6.709,0,0,0,62.826,103.994Z" transform="translate(-39.5 -97.463)" fill="#ffda00"/>
      </g>
    </g>
  </g>
</svg>
